PathFileType	4	(X/Y/Z)	Patient4_TMGait_0pt3_02_left_07.trc.trc
DataRate	CameraRate	NumFrames	NumMarkers	Units	OrigDataRate	OrigDataStartFrame	OrigNumFrames
50.179211469534	50.179211469534	4	33	mm	50.179211469534	71	       141
Frame#	Time	Sacral			L.Shoulder			Chest			R.Shoulder			Neck			R.ASIS			L.ASIS			R.Thigh.Superior			R.Thigh.Lateral			R.Thigh.Inferior			R.Patella			L.Thigh.Superior			L.Thigh.Lateral			L.Thigh.Inferior			L.Patella			L.Shank.Superior			L.Shank.Lateral			L.Shank.Inferior			R.Shank.Superior			R.Shank.Lateral			R.Shank.Inferior			R.Heel			R.Midfoot.Superior			R.Midfoot.Lateral			R.Toe			L.Heel			L.Midfoot.Lateral			L.Midfoot.Superior			L.Toe			L.Elbow			L.Wrist			R.Elbow			R.Wrist			
		X1	Y1	Z1	X2	Y2	Z2	X3	Y3	Z3	X4	Y4	Z4	X5	Y5	Z5	X6	Y6	Z6	X7	Y7	Z7	X8	Y8	Z8	X9	Y9	Z9	X10	Y10	Z10	X11	Y11	Z11	X12	Y12	Z12	X13	Y13	Z13	X14	Y14	Z14	X15	Y15	Z15	X16	Y16	Z16	X17	Y17	Z17	X18	Y18	Z18	X19	Y19	Z19	X20	Y20	Z20	X21	Y21	Z21	X22	Y22	Z22	X23	Y23	Z23	X24	Y24	Z24	X25	Y25	Z25	X26	Y26	Z26	X27	Y27	Z27	X28	Y28	Z28	X29	Y29	Z29	X30	Y30	Z30	X31	Y31	Z31	X32	Y32	Z32	X33	Y33	Z33	

71	14.895000000000	674.512389722690	997.052029988864	435.042911258508	884.605752031795	1429.800183248321	277.930300656465	950.919370340045	1362.908508281868	456.964398167104	834.524042783563	1437.844093176210	609.865757236278	837.574390376480	1492.531004550817	431.136494495910	886.862391653543	947.060227124726	587.827417361034	911.524904997333	955.733529736161	313.441923018224	966.362246990302	770.200555268099	565.295510876275	918.849509852349	648.616278050022	633.894690307676	1008.543663491543	609.183585172010	557.436640622270	1038.409546664407	520.965008286536	577.968038207410	930.593902366753	731.101093514141	355.183169186779	833.165069956017	620.453427779029	290.408167172131	896.946040754149	538.161645501384	365.992107740122	886.213806445660	469.166113941189	378.484211142510	849.582532969282	399.344981874454	371.299257743713	749.559642618297	295.515159066864	317.176758457619	773.723476052849	183.165044321309	397.759889916551	1009.645959129029	431.685784398531	589.596767434841	938.579681163867	329.483510655393	655.820033325957	994.476786313226	232.599023991793	607.776407985612	877.041289115220	54.503871276400	584.738323631957	1044.999895783000	120.124295150946	625.287833355689	962.093057970730	46.895646882488	657.406012440735	1166.359504238741	76.205442625049	647.750645139425	625.225855359670	38.204019667592	434.863335289925	702.507037136138	35.605796987095	357.747989466482	786.262069905352	94.657945379175	389.111279063135	914.715935672230	40.290796822240	364.632296153910	1004.581194684661	1123.412777671882	127.701683558102	1253.380065259991	1043.999444149746	149.032989479783	664.224398727112	1134.456934918335	698.227919730249	624.148880815289	877.407515261990	722.752348623245	
72	14.914928571429	675.193261386974	996.799149903806	436.182026036442	886.787105375213	1429.712413072099	281.530436671568	951.801028146137	1362.246422840480	460.818147878937	834.634810978212	1437.317887360629	613.083663871393	838.773248324484	1492.066861173926	434.601147325373	886.420245997020	946.198615497099	590.333886955609	912.784992595235	955.300244449400	316.032502196119	964.157251885498	767.549334190441	569.018079934540	913.840105955176	646.317312163114	636.463711155629	1003.935254894370	606.586698670336	560.794339815593	1032.884731469758	520.294777139198	580.026102102775	928.505561250867	729.896468547653	357.189919302383	829.473491210127	620.777591092756	291.214724341487	891.407531372303	537.443927283385	366.807609288504	879.545104536385	468.791738570175	379.015852767712	843.325250425613	399.392591434674	371.470726699602	743.184255307004	295.649615603841	317.229018551902	767.552607723814	183.196750192775	397.814768332428	1007.743861343042	430.645792860618	591.412047647067	940.895843628252	325.359014045647	657.642766631157	1000.486574820373	230.750885609540	608.934983684213	889.333501105508	49.315095415144	586.063565391315	1055.949416026610	119.123715229517	625.465538143993	975.195690285447	43.537256053599	657.985216962010	1178.796487157833	78.333343085819	646.615043466294	619.140043280645	38.041952840162	434.885301917492	696.421070417164	35.490902288097	357.756970935467	780.178009763237	94.627867205712	389.103344378714	908.635389854297	40.313230139674	364.675690329163	1010.170396708896	1126.560704021062	129.375705853409	1262.115523917296	1058.886103350886	151.225420592975	662.427007502700	1135.076300307960	699.211240666148	621.995996036097	877.969558098850	723.035658225933	
73	14.934857142857	676.211789933333	996.232783557526	437.676980111843	888.835439746408	1429.344698253262	285.379830998652	952.833142661547	1361.372870246491	464.839274735153	835.004456552537	1436.464172197280	616.612409340021	840.018116047086	1491.323355901079	438.385386676527	886.450844362093	944.987875048805	592.998238541872	914.376832475677	954.657394716093	318.810221519915	962.517741268562	764.586166523603	572.703021452685	909.387668841325	643.697527150841	638.840116873300	999.906133185864	603.753297744025	563.909215181313	1027.662519710253	518.961243805031	581.896170523352	926.947417838359	728.539877809387	359.306478215116	826.328324901380	620.933130999260	292.208446456154	886.466068845909	536.591835876381	367.798013445333	873.508181010500	468.243825988337	379.723740264896	837.564178590993	399.269226511242	371.804704438421	737.144795882684	295.785680155172	317.361885026874	761.534928115169	183.158550743643	397.902000122463	1005.452527296553	429.022758945601	593.092975374398	941.846771869739	321.445428321550	659.072443715552	1004.255574558927	228.747769490638	609.824658884567	897.822293015619	45.520241590052	586.857482963600	1063.473588994605	117.745517615531	625.381192928968	984.114774262348	41.011922334647	658.338208144339	1187.181372460080	78.947262010337	645.797651633801	613.057945433692	37.905266693596	434.893901108044	690.344370719331	35.385206651728	357.762855571025	774.107165059456	94.595840123488	389.098746224377	902.565360666725	40.309487584168	364.715593678206	1015.333445860866	1129.229765143746	131.419140751417	1269.712642841552	1072.661755020825	153.613318195599	662.280709340062	1134.473442754977	700.656929727329	622.099686624499	877.184073424805	723.850405040861	
74	14.954785714286	677.558193391223	995.446436917447	439.547446969079	890.792809151868	1428.768119574650	289.472864531061	954.038852478227	1360.361070463596	469.035238570222	835.637899199781	1435.354102899554	620.450879443582	841.333307325872	1490.375649899417	442.478654813126	886.968310118491	943.528118890949	595.825254049152	916.262389495964	953.856050748714	321.781513936567	961.551499075266	761.515423796647	576.250706599584	905.726868924230	640.932589330009	640.974999207943	996.681669107576	600.878241096160	566.715844637850	1023.044892958760	517.124764616605	583.543159702231	925.936084243236	727.068506758760	361.507495832819	823.734257579458	620.947028690946	293.419327330978	882.175462846584	535.632170218395	368.964393342316	868.175120531748	467.544443448416	380.618429621910	832.344459606374	398.999310961923	372.319509296926	731.477552296773	295.969660833666	317.593680860077	755.693484503578	183.082346679034	398.016718590935	1003.038538548479	426.943234473116	594.584450955804	941.673020696452	317.806954165785	660.122065339573	1005.990747128503	226.573356095362	610.411521759854	902.584972083133	42.959457544366	587.161203273341	1067.742369597969	115.900149141285	624.988236529768	988.994090735784	39.180279825536	658.480771935655	1191.770322707884	77.951800221901	645.215611761274	606.990043735493	37.843687636539	434.880983145647	684.288220337193	35.315312878875	357.764630253055	768.066246816677	94.575080608136	389.090679063297	896.512621759426	40.266282840859	364.747465718172	1020.052113970836	1131.425504317974	133.827823990574	1276.251147379518	1085.226313271048	156.186571910631	663.597782130329	1132.804445653818	702.583723303876	624.118239703208	875.250355312193	725.225062512959	
